<?xml version="1.0" standalone="no"?>
<!DOCTYPE svg PUBLIC "-//W3C//DTD SVG 20010904//EN"
 "http://www.w3.org/TR/2001/REC-SVG-20010904/DTD/svg10.dtd">
<svg version="1.0" xmlns="http://www.w3.org/2000/svg"
 width="300.000000pt" height="225.000000pt" viewBox="0 0 300.000000 225.000000"
 preserveAspectRatio="xMidYMid meet">
<metadata>
Created by potrace 1.10, written by Peter Selinger 2001-2011
</metadata>
<g transform="translate(0.000000,225.000000) scale(0.100000,-0.100000)"
fill="#000000" stroke="none">
<path d="M1163 2075 c-61 -13 -109 -33 -100 -41 2 -2 35 3 73 12 347 81 732
-135 900 -503 94 -205 115 -462 58 -693 -24 -96 -93 -234 -161 -325 -193 -254
-465 -374 -752 -331 -123 19 -111 18 -111 7 0 -5 43 -17 96 -26 268 -49 520
26 714 212 162 154 261 345 301 577 17 100 6 311 -21 411 -48 177 -121 312
-232 430 -208 221 -507 326 -765 270z"/>
<path d="M1190 1466 c-19 -7 -64 -32 -99 -55 -73 -47 -99 -50 -166 -20 -26 11
-51 17 -55 12 -15 -15 -48 -138 -55 -206 -4 -37 -4 -91 -1 -120 7 -51 8 -53
52 -69 44 -16 45 -16 53 6 16 39 50 61 98 61 39 0 49 -5 75 -35 36 -43 139
-156 195 -216 29 -32 43 -57 48 -87 9 -50 30 -77 61 -77 21 0 44 25 44 48 0 5
-18 32 -40 60 -22 27 -40 53 -40 56 0 9 30 7 30 -1 0 -5 20 -30 44 -58 41 -47
45 -49 70 -37 39 17 34 54 -14 106 -37 40 -50 66 -33 66 3 0 29 -25 58 -55 28
-30 56 -55 63 -55 16 0 52 37 52 53 0 13 -100 120 -106 114 -2 -2 9 -24 26
-48 53 -78 32 -95 -36 -28 -28 27 -48 40 -58 36 -30 -12 -29 -38 3 -83 47 -67
39 -87 -15 -36 -59 54 -60 55 -87 38 -24 -16 -25 -15 -119 91 -52 60 -103 118
-114 131 -55 67 -160 69 -210 4 -5 -8 -21 -12 -35 -10 -24 3 -24 3 -23 113 2
134 19 192 55 187 13 -2 51 -4 84 -5 55 -1 66 3 136 46 45 27 88 47 105 47
l29 0 -40 -32 c-68 -56 -92 -88 -99 -130 -9 -57 25 -125 77 -154 45 -25 82
-21 169 20 31 14 63 26 71 26 8 0 50 -39 93 -87 44 -47 84 -91 90 -97 6 -6 16
-21 22 -33 20 -36 -5 -38 -44 -4 -44 39 -62 40 -34 1 58 -81 130 -93 130 -20
0 32 -222 280 -251 280 -10 0 -47 -14 -81 -31 -92 -45 -111 -49 -146 -32 -41
20 -78 89 -68 129 9 35 79 102 141 135 53 28 57 43 14 58 -40 14 -75 13 -119
-3z"/>
<path d="M1385 1404 c-182 -107 -185 -109 -185 -149 0 -80 59 -85 177 -14 60
36 90 49 107 45 12 -3 77 -66 145 -141 67 -74 132 -137 144 -140 12 -3 51 0
87 8 l65 13 3 89 c3 84 -19 240 -36 257 -4 4 -26 1 -49 -7 -104 -36 -111 -34
-202 44 -48 42 -91 71 -104 71 -13 0 -81 -34 -152 -76z m215 -6 c97 -80 111
-88 157 -88 24 0 53 5 64 10 35 19 56 -3 68 -73 15 -84 14 -159 -1 -180 -8
-11 -33 -20 -64 -23 l-51 -6 -102 113 c-111 123 -164 169 -194 169 -10 0 -59
-21 -108 -46 -48 -25 -96 -44 -106 -42 -30 5 -27 43 4 64 71 46 250 144 265
144 9 0 39 -19 68 -42z"/>
<path d="M1005 1020 c-34 -13 -58 -48 -59 -87 -1 -30 4 -39 23 -49 14 -7 33
-29 43 -48 10 -20 25 -36 33 -36 9 0 23 -13 33 -30 10 -16 30 -39 45 -50 15
-12 27 -28 27 -35 0 -23 30 -45 60 -45 31 0 80 48 80 79 0 28 -30 61 -56 61
-21 0 -24 5 -24 33 0 28 -5 36 -32 48 -23 10 -35 24 -40 46 -6 22 -16 35 -31
38 -13 4 -28 19 -34 35 -13 34 -41 50 -68 40z m61 -85 c24 -25 44 -50 44 -54
0 -5 13 -20 29 -33 16 -14 34 -35 41 -49 7 -13 25 -34 41 -47 33 -27 35 -35
13 -56 -21 -22 -31 -20 -57 10 -12 15 -29 34 -37 43 -9 9 -49 53 -90 99 -68
76 -72 84 -62 107 6 14 17 25 23 25 6 0 31 -20 55 -45z"/>
</g>
</svg>
