<?xml version="1.0" standalone="no"?>
<!DOCTYPE svg PUBLIC "-//W3C//DTD SVG 20010904//EN"
 "http://www.w3.org/TR/2001/REC-SVG-20010904/DTD/svg10.dtd">
<svg version="1.0" xmlns="http://www.w3.org/2000/svg"
 width="300.000000pt" height="225.000000pt" viewBox="0 0 300.000000 225.000000"
 preserveAspectRatio="xMidYMid meet">
<metadata>
Created by potrace 1.10, written by Peter Selinger 2001-2011
</metadata>
<g transform="translate(0.000000,225.000000) scale(0.100000,-0.100000)"
fill="#000000" stroke="none">
<path d="M1275 2021 c-39 -17 -125 -101 -125 -120 0 -32 64 -9 77 27 8 23 82
92 98 92 8 0 17 5 20 10 10 16 -26 11 -70 -9z"/>
<path d="M1390 2024 c-49 -21 -120 -93 -120 -121 0 -41 36 -27 82 31 30 38 59
62 98 80 l55 26 -40 -1 c-22 0 -56 -7 -75 -15z"/>
<path d="M1541 2018 c-74 -13 -170 -94 -155 -132 11 -28 46 -17 88 28 52 56
102 86 144 86 18 0 31 4 28 9 -9 13 -56 18 -105 9z"/>
<path d="M1176 2005 c-36 -13 -126 -89 -126 -107 0 -24 42 -1 79 42 24 28 57
57 74 65 42 18 23 18 -27 0z"/>
<path d="M1638 1980 c-89 -27 -158 -111 -98 -120 32 -5 50 1 80 26 22 19 28
30 21 37 -7 7 -23 1 -51 -22 -22 -17 -40 -28 -40 -24 0 15 51 64 61 58 5 -4 9
-2 9 4 0 7 8 7 26 1 16 -7 32 -7 44 0 37 20 95 12 137 -19 22 -16 78 -48 124
-71 46 -23 92 -49 102 -57 9 -9 17 -12 17 -8 0 5 5 4 12 -3 6 -6 17 -38 24
-69 9 -44 13 -50 13 -25 1 17 5 32 9 32 18 0 128 -98 142 -125 18 -38 27 -165
11 -165 -6 0 -11 5 -11 10 0 6 -10 10 -22 10 -23 -1 -23 -1 3 -24 15 -13 30
-33 34 -45 6 -19 4 -21 -19 -15 -27 6 -34 -4 -15 -23 17 -17 -12 -55 -31 -42
-26 16 -36 9 -14 -9 12 -9 26 -25 31 -36 8 -15 16 -4 44 65 29 72 34 96 34
165 0 72 -3 86 -30 129 -27 44 -184 182 -209 184 -6 1 -19 10 -30 20 -12 10
-87 53 -168 95 -149 77 -178 85 -240 66z"/>
<path d="M984 1910 c-45 -37 -81 -86 -71 -96 3 -3 15 11 27 30 12 20 27 36 34
36 7 0 27 16 46 35 46 47 23 44 -36 -5z"/>
<path d="M894 1788 c-3 -4 14 -8 38 -9 36 0 39 -2 21 -9 -13 -6 -23 -18 -23
-30 0 -19 6 -20 90 -19 94 1 104 5 115 52 l7 28 -121 -2 c-67 -1 -124 -6 -127
-11z"/>
<path d="M1244 1792 c-20 -13 -37 -53 -26 -64 5 -5 58 -14 118 -19 227 -19
411 -74 567 -170 53 -32 71 -33 80 0 7 29 -8 43 -105 99 -141 80 -281 124
-450 142 -57 6 -119 12 -138 15 -19 2 -40 1 -46 -3z m617 -180 c24 -16 53 -31
63 -35 10 -4 16 -10 13 -13 -7 -8 -67 18 -67 28 0 5 -5 8 -11 8 -6 0 -22 9
-36 20 -38 29 -14 24 38 -8z"/>
<path d="M905 1670 c-22 -4 -34 -8 -28 -9 8 -1 10 -11 7 -31 l-6 -30 90 0 c83
0 92 2 106 22 32 46 23 55 -56 55 -40 0 -91 -3 -113 -7z"/>
<path d="M1182 1657 c-7 -7 -13 -24 -14 -38 -3 -23 -1 -24 117 -36 164 -17
263 -38 374 -80 90 -34 115 -45 209 -100 45 -27 55 -24 66 14 6 19 -1 28 -46
56 -179 115 -369 174 -609 192 -66 4 -88 3 -97 -8z m569 -143 c28 -14 49 -27
47 -30 -5 -5 -118 45 -118 52 0 10 24 2 71 -22z"/>
<path d="M834 1535 c11 -8 14 -15 8 -15 -7 0 -12 -11 -12 -25 0 -25 1 -25 83
-25 88 0 98 3 116 37 21 41 16 43 -101 43 -102 -1 -111 -2 -94 -15z"/>
<path d="M1124 1515 c-28 -43 -15 -51 93 -59 200 -14 417 -75 556 -156 81 -47
103 -50 109 -15 6 29 -3 38 -97 93 -138 80 -304 133 -477 152 -148 15 -165 14
-184 -15z m615 -147 c46 -23 80 -43 74 -45 -5 -2 -50 17 -99 41 -49 25 -82 46
-74 46 8 0 52 -19 99 -42z"/>
<path d="M2100 1470 c-6 -11 -9 -28 -5 -38 5 -17 103 -82 123 -82 5 0 12 12
15 27 5 29 -11 46 -84 91 l-38 23 -11 -21z"/>
<path d="M785 1420 c-18 -8 -18 -9 5 -9 l24 -1 -21 -15 c-34 -24 -19 -45 32
-45 31 0 53 8 84 30 23 17 40 34 37 38 -7 11 -137 13 -161 2z"/>
<path d="M1130 1394 c1 -45 31 -63 120 -75 47 -5 117 -17 155 -26 166 -37 411
-151 374 -174 -11 -6 -11 -12 0 -32 8 -16 11 -40 7 -64 -9 -60 -6 -407 5 -417
5 -6 9 29 10 95 2 329 6 456 17 475 11 22 63 34 141 34 43 0 81 -23 81 -49 0
-19 76 -76 83 -63 2 4 7 19 11 34 5 24 0 30 -45 60 -43 27 -62 33 -111 34 -34
1 -63 6 -68 13 -5 9 -13 9 -33 0 -15 -7 -27 -16 -27 -21 0 -19 -49 -5 -134 41
-158 85 -320 133 -498 147 -82 6 -88 5 -88 -12z m555 -153 c69 -33 111 -61 92
-61 -9 0 -187 91 -187 96 0 8 13 3 95 -35z"/>
<path d="M2050 1341 c-16 -32 -13 -37 51 -81 63 -43 75 -43 81 0 3 21 -6 31
-52 62 -30 21 -58 38 -62 38 -4 0 -12 -9 -18 -19z"/>
<path d="M983 1343 c-14 -5 -18 -63 -5 -63 18 0 52 33 52 51 0 19 -19 24 -47
12z"/>
<path d="M738 1288 c9 -9 8 -14 -4 -22 -9 -7 -12 -18 -8 -29 5 -14 19 -17 70
-17 72 0 87 13 64 56 -12 21 -20 24 -74 24 -46 0 -57 -3 -48 -12z"/>
<path d="M1098 1257 c-66 -39 -52 -50 72 -62 166 -16 341 -68 488 -146 74 -39
97 -47 108 -38 19 16 18 43 -3 61 -37 32 -192 108 -293 143 -92 32 -257 66
-315 64 -11 0 -37 -10 -57 -22z m509 -129 c15 -7 30 -15 33 -18 3 -3 19 -12
35 -20 17 -8 38 -21 48 -29 14 -11 17 -12 17 -1 0 11 3 11 12 2 6 -6 8 -15 4
-19 -6 -6 -196 84 -196 94 0 6 20 3 47 -9z"/>
<path d="M2190 1231 c0 -5 6 -11 13 -14 20 -7 -7 -42 -32 -40 -21 3 -21 3 -1
-17 23 -23 27 -52 5 -44 -22 9 -38 -5 -25 -21 9 -10 7 -20 -5 -39 -16 -24 -12
-78 5 -60 15 18 90 225 85 234 -8 13 -45 13 -45 1z"/>
<path d="M1895 1173 c-9 -9 -20 -26 -25 -38 -10 -26 -7 -381 3 -391 4 -4 7 55
8 132 1 236 12 282 73 302 l31 10 -37 1 c-22 1 -43 -6 -53 -16z"/>
<path d="M689 1161 c11 -7 10 -11 -4 -19 -10 -5 -16 -16 -12 -24 4 -11 29 -17
89 -22 77 -6 84 -5 101 15 9 12 17 30 17 40 0 17 -9 19 -102 19 -62 0 -98 -4
-89 -9z"/>
<path d="M970 1141 c-5 -11 -10 -28 -10 -39 0 -17 10 -20 78 -26 221 -19 409
-71 571 -157 89 -48 96 -50 108 -33 28 39 18 51 -97 112 -132 71 -308 128
-453 147 -157 20 -184 20 -197 -4z m490 -106 c66 -22 93 -35 169 -77 46 -26
59 -38 40 -38 -8 0 -19 4 -24 9 -19 16 -130 73 -190 96 -67 26 -64 33 5 10z"/>
<path d="M2040 1014 c0 -37 3 -45 17 -42 25 5 36 58 15 74 -27 21 -32 17 -32
-32z"/>
<path d="M638 1043 c10 -4 10 -9 -3 -23 -30 -34 -15 -45 70 -50 44 -3 85 -4
92 -2 6 2 17 17 24 34 17 42 3 48 -106 47 -49 0 -84 -3 -77 -6z"/>
<path d="M939 1032 c-19 -4 -41 -46 -33 -66 3 -9 33 -16 92 -20 206 -17 393
-69 562 -157 87 -46 96 -49 107 -33 28 39 18 51 -97 112 -141 75 -306 127
-475 149 -77 10 -147 17 -156 15z m472 -126 c102 -38 179 -76 179 -87 0 -6 4
-8 9 -5 5 3 11 -1 14 -9 4 -10 1 -12 -11 -8 -9 4 -19 9 -22 12 -9 11 -159 82
-213 101 -29 10 -45 19 -36 19 9 1 45 -10 80 -23z"/>
<path d="M2095 980 c-3 -5 -2 -10 4 -10 11 0 9 -19 -3 -39 -5 -8 -9 -27 -8
-42 1 -26 -2 -28 -24 -23 -24 6 -25 5 -21 -32 3 -25 -2 -49 -14 -68 -16 -26
-18 -55 -19 -230 0 -111 -3 -227 -6 -259 -5 -57 -46 -157 -65 -157 -5 0 -9 -5
-9 -12 0 -6 -10 -22 -22 -35 -12 -13 -17 -23 -11 -23 17 0 70 66 97 119 38 74
47 155 44 378 -2 111 1 201 5 200 11 -3 98 215 92 231 -5 14 -31 16 -40 2z"/>
<path d="M564 962 c-6 -4 -16 -17 -23 -29 -15 -30 8 -22 27 8 15 23 13 32 -4
21z"/>
<path d="M588 911 c11 -7 10 -9 -3 -15 -10 -3 -15 -15 -13 -28 3 -22 8 -23 88
-26 77 -3 87 -1 103 19 9 12 17 30 17 40 0 17 -9 19 -102 19 -60 0 -97 -4 -90
-9z"/>
<path d="M878 898 c-9 -7 -20 -25 -23 -40 -8 -30 -23 -26 175 -52 194 -26 346
-74 499 -158 73 -40 84 -40 95 -3 9 30 -1 38 -104 93 -153 81 -316 133 -475
151 -49 6 -104 13 -120 16 -17 3 -38 0 -47 -7z m458 -115 c22 -9 47 -18 57
-20 37 -7 208 -102 185 -103 -5 0 -64 27 -131 60 -68 33 -130 60 -138 60 -8 0
-21 5 -29 10 -26 17 12 12 56 -7z"/>
<path d="M496 818 c-8 -13 -18 -36 -22 -53 l-7 -30 20 25 c21 26 43 64 43 74
0 14 -21 4 -34 -16z"/>
<path d="M496 733 c-15 -20 -17 -36 -13 -79 6 -55 45 -140 79 -171 15 -13 13
-5 -9 43 -23 48 -28 74 -29 142 -1 46 -3 85 -5 87 -2 1 -12 -8 -23 -22z"/>
<path d="M578 743 c-36 -41 -30 -141 13 -230 19 -39 84 -98 154 -137 30 -17
30 -17 5 1 -58 43 -78 64 -105 115 -28 50 -30 59 -29 161 1 111 -6 127 -38 90z"/>
<path d="M675 736 c-30 -22 -34 -149 -6 -207 40 -85 73 -118 183 -186 76 -47
78 -48 78 -34 0 5 -24 23 -54 40 -70 41 -104 75 -133 137 -26 57 -33 130 -20
212 8 47 7 52 -10 52 -11 0 -28 -6 -38 -14z"/>
<path d="M791 731 c-18 -14 -26 -32 -31 -71 -16 -127 35 -221 170 -312 47 -31
91 -57 98 -57 28 -2 9 26 -37 51 -95 54 -147 131 -157 236 -3 31 -1 76 4 100
8 34 7 46 -5 57 -17 18 -13 18 -42 -4z"/>
<path d="M930 720 c0 -5 5 -10 11 -10 5 0 7 -5 4 -11 -5 -7 -13 -5 -25 6 -17
16 -19 15 -29 -4 -19 -34 -14 -157 8 -199 32 -62 87 -117 165 -166 81 -50 96
-55 96 -28 0 10 -23 31 -56 50 -95 58 -157 188 -139 292 8 46 -1 80 -21 80 -8
0 -14 -4 -14 -10z m42 -267 c10 -13 10 -15 0 -9 -17 10 -52 81 -52 103 1 10 9
-4 20 -30 10 -27 24 -56 32 -64z"/>
<path d="M1060 701 c0 -5 6 -12 13 -14 7 -3 6 -6 -5 -6 -9 -1 -20 4 -24 11
-13 21 -34 -24 -34 -72 0 -63 24 -130 65 -177 50 -59 238 -178 210 -134 -3 5
-1 12 5 16 5 3 10 1 10 -4 0 -6 7 -11 15 -11 29 0 14 18 -55 64 -46 30 -81 63
-100 93 -32 50 -55 141 -46 179 4 16 0 30 -14 44 -21 21 -40 26 -40 11z m30
-196 c16 -32 42 -63 72 -85 26 -19 45 -36 43 -38 -9 -9 -82 42 -102 71 -31 46
-59 128 -54 157 4 20 6 17 11 -15 3 -22 17 -63 30 -90z"/>
<path d="M1747 584 c-14 -14 -7 -53 12 -66 18 -12 19 -25 17 -113 -1 -56 -8
-110 -14 -122 -16 -29 -21 -29 -15 0 4 22 4 22 -11 2 -62 -79 -85 -91 -229
-121 -92 -20 -138 -25 -187 -21 -69 6 -311 82 -392 123 -26 13 -48 21 -48 17
0 -18 93 -125 128 -148 40 -26 135 -48 257 -60 39 -3 122 -13 185 -21 166 -22
237 -4 293 75 30 41 51 81 43 81 -1 0 -17 -22 -34 -49 -50 -76 -68 -85 -176
-77 -127 10 -156 15 -150 31 3 8 32 16 70 20 70 7 176 35 214 55 13 7 39 28
58 46 l35 34 1 157 1 158 -25 3 c-14 2 -29 0 -33 -4z m-738 -373 c14 -26 148
-76 256 -97 50 -9 94 -20 98 -24 12 -10 -140 -1 -193 12 -25 6 -54 17 -65 24
-11 7 -40 20 -64 29 -44 15 -70 39 -71 63 0 19 28 14 39 -7z"/>
<path d="M1867 493 c-2 -5 -5 -60 -5 -123 -1 -76 2 -108 8 -95 8 18 12 225 4
225 -1 0 -5 -3 -7 -7z"/>
<path d="M1617 452 c-40 -57 -96 -108 -157 -141 -67 -37 -59 -41 12 -5 54 27
131 100 161 153 25 43 15 39 -16 -7z"/>
<path d="M1275 260 l-40 -7 35 0 c19 -1 49 3 65 7 27 7 27 8 5 7 -14 0 -43 -3
-65 -7z"/>
<path d="M1103 243 c26 -2 67 -2 90 0 23 2 2 3 -48 3 -49 0 -68 -1 -42 -3z"/>
</g>
</svg>
