<?xml version="1.0" standalone="no"?>
<!DOCTYPE svg PUBLIC "-//W3C//DTD SVG 20010904//EN"
 "http://www.w3.org/TR/2001/REC-SVG-20010904/DTD/svg10.dtd">
<svg version="1.0" xmlns="http://www.w3.org/2000/svg"
 width="300.000000pt" height="225.000000pt" viewBox="0 0 300.000000 225.000000"
 preserveAspectRatio="xMidYMid meet">
<metadata>
Created by potrace 1.10, written by Peter Selinger 2001-2011
</metadata>
<g transform="translate(0.000000,225.000000) scale(0.100000,-0.100000)"
fill="#000000" stroke="none">
<path d="M1394 1700 c-12 -5 -36 -11 -54 -13 -98 -16 -233 -125 -295 -238 -60
-112 -80 -272 -47 -384 30 -100 99 -197 195 -274 l67 -54 0 -102 c0 -86 3
-104 18 -118 10 -10 27 -17 37 -17 20 0 93 40 283 154 51 31 95 56 98 56 15 0
124 78 164 119 90 91 160 253 160 371 0 231 -146 422 -380 496 -48 15 -209 17
-246 4z m225 -25 c128 -34 255 -131 313 -241 60 -111 76 -278 39 -387 -55
-159 -115 -215 -420 -390 -132 -76 -245 -136 -251 -132 -16 10 -13 239 4 279
7 18 31 47 52 65 33 28 35 32 14 26 -41 -12 -80 -55 -86 -97 -4 -21 -10 -38
-14 -38 -4 0 -31 17 -61 39 -64 46 -111 103 -150 180 -117 235 -23 528 212
656 97 53 239 69 348 40z"/>
<path d="M1309 1623 c-9 -10 -15 -48 -16 -107 -3 -100 12 -93 20 10 3 33 10
71 16 87 12 30 1 36 -20 10z"/>
<path d="M1324 1436 l-34 -34 0 -192 c0 -213 8 -248 61 -275 53 -28 81 -19
246 76 181 104 203 123 203 179 0 70 -12 82 -188 184 -141 82 -173 96 -210 96
-37 0 -50 -6 -78 -34z m230 -58 c67 -40 133 -79 147 -88 48 -28 56 -35 68 -57
19 -37 12 -64 -25 -99 -19 -19 -40 -34 -46 -34 -5 0 -22 -8 -36 -19 -26 -18
-61 -38 -187 -107 -67 -36 -100 -36 -133 0 -23 24 -24 38 -23 267 1 151 2 157
26 183 40 43 72 36 209 -46z"/>
<path d="M1826 1238 c5 -11 115 -97 137 -106 4 -2 2 8 -4 22 -7 14 -39 41 -71
61 -66 39 -70 40 -62 23z"/>
</g>
</svg>
